<svg width="32" height="32" viewBox="0 0 32 32" fill="none" xmlns="http://www.w3.org/2000/svg">
<path fill-rule="evenodd" clip-rule="evenodd" d="M10.6667 2.667L10.5789 2.667C9.39692 2.66693 8.3785 2.66687 7.56295 2.77652C6.68893 2.89403 5.85113 3.15902 5.17158 3.83857C4.49203 4.51812 4.22704 5.35592 4.10953 6.22994C3.99988 7.04549 3.99994 8.06391 4 9.24589L4.00001 9.33367V10.6003C4.00001 11.3367 4.59696 11.9337 5.33334 11.9337C6.06972 11.9337 6.66667 11.3367 6.66667 10.6003V9.33367C6.66667 8.03889 6.6695 7.20195 6.75241 6.58527C6.83017 6.00695 6.9557 5.82569 7.0572 5.72419C7.1587 5.62269 7.33996 5.49716 7.91828 5.41941C8.53495 5.3365 9.3719 5.33367 10.6667 5.33367H14.6667H17.3333H21.3333C22.6281 5.33367 23.4651 5.3365 24.0817 5.41941C24.6601 5.49716 24.8413 5.62269 24.9428 5.72419C25.0443 5.82569 25.1698 6.00695 25.2476 6.58527C25.3305 7.20195 25.3333 8.03889 25.3333 9.33367V10.6003C25.3333 11.3367 25.9303 11.9337 26.6667 11.9337C27.4031 11.9337 28 11.3367 28 10.6003L28 9.24592C28.0001 8.06393 28.0001 7.0455 27.8905 6.22994C27.773 5.35592 27.508 4.51812 26.8284 3.83857C26.1489 3.15902 25.3111 2.89403 24.4371 2.77652C23.6215 2.66687 22.6031 2.66693 21.4211 2.667L10.6667 2.667Z" fill="#00AB55"/>
<path opacity="0.5" d="M17.3327 5.33301H14.666V26.6663H17.3327V5.33301Z" fill="#00AB55"/>
<path fill-rule="evenodd" clip-rule="evenodd" d="M8 28.0003C8 27.2639 8.59695 26.667 9.33333 26.667H22.6667C23.403 26.667 24 27.2639 24 28.0003C24 28.7367 23.403 29.3337 22.6667 29.3337H9.33333C8.59695 29.3337 8 28.7367 8 28.0003Z" fill="#00AB55"/>
</svg>
